<svg xmlns:xlink="http://www.w3.org/1999/xlink" xmlns="http://www.w3.org/2000/svg" width="80" viewBox="0 0 34 24" fill="none" class="gartner-ei-logo" height="80" ><path d="M22.2849 9.58203C20.9218 9.58203 19.8179 10.6962 19.8179 12.0718C19.8179 13.4474 20.9218 14.5615 22.2849 14.5615H30.4398L28.5633 9.58439H22.2849V9.58203Z" fill="#FEBA06"></path><path d="M3.40987 14.5591H15.3785C16.7415 14.5591 17.8455 13.4449 17.8455 12.0693C17.8455 10.6961 16.7415 9.57959 15.3785 9.57959H3.40987C2.04684 9.57959 0.942871 10.6937 0.942871 12.0693C0.942871 13.4449 2.04684 14.5591 3.40987 14.5591Z" fill="#A3D008"></path><path d="M31.6976 18.1916H6.19201C5.54784 17.419 4.58391 16.9243 3.50562 16.9243C1.56843 16.9243 0 18.5096 0 20.4623C0 22.4173 1.57076 24.0002 3.50562 24.0002C4.58391 24.0002 5.54784 23.5079 6.19201 22.7329H33.4107L31.6976 18.1916Z" fill="#F8562C"></path><path d="M25.5639 1.3332H6.24336C5.60152 0.522917 4.61425 0 3.50562 0C1.56843 0 0 1.58524 0 3.53794C0 5.49299 1.57076 7.07587 3.50562 7.07587C4.55357 7.07587 5.48949 6.60948 6.13133 5.87457H27.2771L25.5639 1.3332Z" fill="#39BFCE"></path></svg>